PathFileType	4	(X/Y/Z)	/Users/itak/Documents/Research/Walk-IL/dataset/trc/00070_00006.trc
DataRate	CameraRate	NumFrames	NumMarkers	Units	OrigDataRate	OrigDataStartFrame	OrigNumFrames
100.000000	100.000000	4	53	mm	100.000000	178	715
Frame#	Time	RPSI			LPSI			L3			STRN			T10			C7			CLAV			RBAK			LBAK			LSHO			LUPA			LAEL			LAOL			LWTS			LWPS			LFRA			LIFD			LHPS			LHTS			RSHO			RUPA			RAEL			RAOL			RWTS			RWPS			RFRA			RIFD			RHTS			RHPS			RBHD			LFHD			RFHD			LBHD			LHIP			RHIP			RASI			LASI			LKNE			LTHI			LANK			LTIP			LTOE			LMT1			LMT5			LHEE			RKNE			RTHI			RANK			RTIP			RTOE			RMT1			RMT5			RHEE			
		X1	Y1	Z1	X2	Y2	Z2	X3	Y3	Z3	X4	Y4	Z4	X5	Y5	Z5	X6	Y6	Z6	X7	Y7	Z7	X8	Y8	Z8	X9	Y9	Z9	X10	Y10	Z10	X11	Y11	Z11	X12	Y12	Z12	X13	Y13	Z13	X14	Y14	Z14	X15	Y15	Z15	X16	Y16	Z16	X17	Y17	Z17	X18	Y18	Z18	X19	Y19	Z19	X20	Y20	Z20	X21	Y21	Z21	X22	Y22	Z22	X23	Y23	Z23	X24	Y24	Z24	X25	Y25	Z25	X26	Y26	Z26	X27	Y27	Z27	X28	Y28	Z28	X29	Y29	Z29	X30	Y30	Z30	X31	Y31	Z31	X32	Y32	Z32	X33	Y33	Z33	X34	Y34	Z34	X35	Y35	Z35	X36	Y36	Z36	X37	Y37	Z37	X38	Y38	Z38	X39	Y39	Z39	X40	Y40	Z40	X41	Y41	Z41	X42	Y42	Z42	X43	Y43	Z43	X44	Y44	Z44	X45	Y45	Z45	X46	Y46	Z46	X47	Y47	Z47	X48	Y48	Z48	X49	Y49	Z49	X50	Y50	Z50	X51	Y51	Z51	X52	Y52	Z52	X53	Y53	Z53	

179	1.78	-108.1554946899414	1028.432250976562	845.7119750976562	-216.4529113769531	1013.745666503906	981.9302978515625	-165.6285705566406	1083.159545898438	912.1856079101562	-362.0680541992188	1274.743286132812	741.1199951171875	-157.6913452148438	1218.14208984375	916.2022094726562	-203.7395172119141	1482.696166992188	870.7915649414062	-340.0879821777344	1389.706420898438	758.4532470703125	-107.7253952026367	1344.351196289062	858.7874755859375	-247.7662200927734	1448.499267578125	962.2959594726562	-371.4328918457031	1453.055786132812	957.1544799804688	-396.3569641113281	1336.312377929688	1042.907836914062	-413.2253723144531	1126.790649414062	1081.92041015625	-313.9808654785156	1109.474365234375	1041.663818359375	-457.2374267578125	873.9738159179688	1025.41357421875	-431.1288452148438	875.1861572265625	1104.700805664062	-429.5793762207031	1018.237365722656	1097.141845703125	-450.4940185546875	691.21533203125	1022.96533203125	-455.9959716796875	790.438720703125	1097.041625976562	-478.7766723632812	792.3163452148438	1030.10302734375	-139.5439758300781	1441.7626953125	699.0011596679688	-87.16849517822266	1373.960327148438	661.8495483398438	-33.80886459350586	1111.584228515625	660.7601928710938	-114.4106979370117	1087.473999023438	713.7233276367188	-197.4784851074219	893.0070190429688	557.9602661132812	-119.2060394287109	857.8699340820312	571.1685791015625	-42.6021728515625	1028.798217773438	639.24755859375	-259.0114440917969	720.6516723632812	554.691650390625	-237.1405487060547	802.852783203125	525.345947265625	-162.5836334228516	779.4957885742188	530.895751953125	-335.0489501953125	1668.859741210938	865.6102905273438	-236.8442993164062	1677.630249023438	673.523681640625	-360.3076477050781	1697.288696289062	690.9525146484375	-203.2453002929688	1640.623413085938	837.4801635742188	-358.9962768554688	956.5463256835938	977.6929931640625	-101.6828079223633	952.4989013671875	747.4737548828125	-206.4458160400391	967.51171875	675.3709106445312	-398.6466064453125	967.8017578125	862.4898071289062	-515.6875610351562	535.5807495117188	775.7612915039062	-482.0491943359375	665.7717895507812	857.6878051757812	-351.9151611328125	156.0294952392578	1044.477661132812	-439.8303527832031	332.2158813476562	924.9053955078125	-474.9799194335938	80.17290496826172	905.5873413085938	-406.0809936523438	91.95552062988281	900.71337890625	-440.5587158203125	106.8636703491211	1006.433898925781	-263.2279052734375	174.1426086425781	1026.926025390625	-217.0821380615234	505.7684936523438	765.2765502929688	-174.0891876220703	769.460693359375	704.4339599609375	-209.8948669433594	42.18317031860352	894.2365112304688	-216.6357116699219	381.8754272460938	795.3003540039062	-398.6632995605469	43.93123626708984	785.1033325195312	-377.2073364257812	46.88376235961914	851.6650390625	-293.4873046875	50.02531433105469	801.7352294921875	-212.5418701171875	45.3171272277832	967.8369140625	
180	1.79	-113.7173461914062	1028.0322265625	842.24365234375	-224.3082733154297	1013.414855957031	976.7520751953125	-171.81298828125	1082.649169921875	907.9784545898438	-365.9696655273438	1274.222412109375	734.056396484375	-164.0227203369141	1217.71484375	911.6016235351562	-209.2421112060547	1482.25732421875	865.6246948242188	-344.3251037597656	1389.174194335938	751.7261962890625	-113.2096786499023	1343.978515625	854.8003540039062	-254.3237457275391	1447.971801757812	956.5940551757812	-377.8829345703125	1452.362426757812	950.1439819335938	-403.3586120605469	1335.7275390625	1035.79150390625	-420.1906433105469	1126.283325195312	1075.028076171875	-320.5891723632812	1109.099243164062	1035.661376953125	-463.0838623046875	873.2230834960938	1018.754211425781	-437.8547058105469	874.71533203125	1098.29345703125	-436.50830078125	1017.758239746094	1090.270751953125	-455.7790832519531	690.4800415039062	1016.829223632812	-462.3803405761719	789.8639526367188	1090.61181640625	-484.3190612792969	791.4649047851562	1023.513122558594	-143.1394348144531	1441.358764648438	694.6051025390625	-90.23809814453125	1373.69873046875	658.0579833984375	-36.33041381835938	1111.343017578125	657.2655029296875	-117.399772644043	1087.155029296875	709.4844970703125	-200.4792785644531	893.9610595703125	552.6102905273438	-122.5681304931641	858.1658935546875	566.3015747070312	-45.00862884521484	1028.45751953125	635.4417724609375	-263.3530883789062	722.16357421875	548.46923828125	-240.6122131347656	804.2476196289062	519.46337890625	-166.2557220458984	780.2380981445312	525.5313110351562	-340.914306640625	1668.342895507812	858.8187866210938	-240.2866363525391	1677.069458007812	667.9943237304688	-363.9497985839844	1696.725341796875	683.8328857421875	-208.7403106689453	1640.107543945312	832.3492431640625	-366.7183837890625	956.4249267578125	970.1842041015625	-105.8849487304688	952.1094360351562	744.195068359375	-209.1358947753906	966.9254760742188	670.2638549804688	-404.4037475585938	967.7430419921875	854.1285400390625	-522.0479125976562	538.6085205078125	761.281005859375	-489.237548828125	667.5492553710938	845.13916015625	-379.7265930175781	144.7832183837891	1021.387878417969	-457.3425903320312	328.2247924804688	905.9058837890625	-499.8243713378906	78.98632049560547	875.0170288085938	-430.5089416503906	88.50853729248047	873.189208984375	-468.4752807617188	100.3802108764648	978.080322265625	-289.9751586914062	160.5927276611328	1007.900329589844	-217.2500457763672	505.3504028320312	764.1752319335938	-176.3164825439453	768.8140869140625	701.332275390625	-209.9577941894531	42.20653533935547	894.3242797851562	-216.5167846679688	381.7522583007812	794.7595825195312	-398.6547241210938	43.87286758422852	785.0120239257812	-377.2525939941406	46.90083312988281	851.5748291015625	-293.4385986328125	49.96318817138672	801.6947631835938	-212.6668548583984	45.38948440551758	967.9772338867188	
181	1.8	-119.3104629516602	1027.555541992188	838.6345825195312	-232.1478271484375	1013.03173828125	971.4421997070312	-178.018310546875	1082.067504882812	903.665283203125	-369.867919921875	1273.607299804688	726.9549560546875	-170.3753662109375	1217.170043945312	906.9044799804688	-214.7711029052734	1481.714111328125	860.3731689453125	-348.5591430664062	1388.543823242188	744.9448852539062	-118.7312698364258	1343.492919921875	850.7376098632812	-260.9365234375	1447.342407226562	950.7969970703125	-384.3324890136719	1451.586547851562	943.0462036132812	-410.3467407226562	1335.063110351562	1028.591674804688	-427.1304321289062	1125.697875976562	1068.065307617188	-327.1920166015625	1108.63525390625	1029.55712890625	-468.9953002929688	872.4014892578125	1012.083801269531	-444.5574340820312	874.1887817382812	1091.85009765625	-443.4172668457031	1017.210144042969	1083.360595703125	-461.2090148925781	689.6788330078125	1010.739318847656	-468.7783813476562	789.2459106445312	1084.208129882812	-489.9724731445312	790.5543823242188	1016.951904296875	-146.7499542236328	1440.849487304688	690.15673828125	-93.35066986083984	1373.336181640625	654.2351684570312	-38.84795379638672	1111.010375976562	653.7227172851562	-120.3507690429688	1086.74658203125	705.21484375	-203.4933929443359	894.8440551757812	547.2871704101562	-125.9130172729492	858.4122314453125	561.3416137695312	-47.5154914855957	1028.037963867188	631.5545654296875	-267.6502075195312	723.5877685546875	542.2440795898438	-244.1083984375	805.5653076171875	513.601806640625	-169.9489440917969	780.9425048828125	520.070068359375	-346.7703552246094	1667.718627929688	851.950927734375	-243.7482604980469	1676.412231445312	662.40966796875	-367.5857543945312	1696.069213867188	676.6668701171875	-214.2456817626953	1639.496826171875	827.1441650390625	-374.3266296386719	956.1915283203125	962.662109375	-110.2328948974609	951.6697998046875	740.7785034179688	-211.9371643066406	966.2713623046875	665.1134643554688	-410.1368713378906	967.5272216796875	845.7892456054688	-527.784423828125	541.1882934570312	747.5355834960938	-495.8717041015625	668.9476928710938	833.1500854492188	-407.4088439941406	133.5089263916016	996.8136596679688	-474.4690551757812	324.0590209960938	886.5057373046875	-523.6824951171875	78.22347259521484	843.2069091796875	-454.1202697753906	85.37967681884766	844.4890747070312	-495.8232116699219	94.095458984375	948.2229614257812	-316.8624267578125	146.9317474365234	987.4649047851562	-217.5923767089844	504.9373474121094	762.9673461914062	-178.6300811767578	768.1434936523438	698.1000366210938	-210.0191345214844	42.22697067260742	894.4044189453125	-216.5043182373047	381.6138000488281	794.0797119140625	-398.6318969726562	43.7969856262207	784.8864135742188	-377.3121032714844	46.93394470214844	851.4466552734375	-293.3773498535156	49.87412261962891	801.632080078125	-212.8034057617188	45.49624252319336	968.112548828125	
182	1.81	-124.9145355224609	1026.994262695312	834.87744140625	-239.9475555419922	1012.580810546875	965.9906616210938	-184.2467498779297	1081.414428710938	899.2135620117188	-373.7715759277344	1272.89453125	719.821044921875	-176.7271728515625	1216.50927734375	902.1080932617188	-220.3369445800781	1481.066284179688	855.0327758789062	-352.7969055175781	1387.812133789062	738.1126708984375	-124.28271484375	1342.896850585938	846.5889282226562	-267.60498046875	1446.611083984375	944.8992919921875	-390.7786560058594	1450.73486328125	935.8638305664062	-417.3172302246094	1334.325073242188	1021.314025878906	-434.0484924316406	1125.040771484375	1061.033325195312	-333.78662109375	1108.083984375	1023.350402832031	-474.976318359375	871.5160522460938	1005.397888183594	-451.2479248046875	873.6099243164062	1085.37060546875	-450.3036804199219	1016.596862792969	1076.418334960938	-466.7834777832031	688.8167114257812	1004.679321289062	-475.1978454589844	788.5902709960938	1077.821044921875	-495.7640075683594	789.5973510742188	1010.383666992188	-150.3885192871094	1440.2392578125	685.6498413085938	-96.51729583740234	1372.874145507812	650.3748779296875	-41.37872695922852	1110.587036132812	650.13525390625	-123.2813949584961	1086.252563476562	700.9069213867188	-206.5199279785156	895.652587890625	541.9664306640625	-129.2528076171875	858.605712890625	556.2982177734375	-50.13408279418945	1027.540649414062	627.5932006835938	-271.9122924804688	724.921875	536.0003051757812	-247.6131286621094	806.79638671875	507.7439270019531	-173.6523895263672	781.59912109375	514.5234985351562	-352.6218872070312	1666.99072265625	845.0052490234375	-247.2275695800781	1675.658813476562	656.7698364257812	-371.2152099609375	1695.320434570312	669.4517822265625	-219.7719879150391	1638.790405273438	821.8701782226562	-381.8298645019531	955.8405151367188	955.1130981445312	-114.6695404052734	951.1777954101562	737.214111328125	-214.8424835205078	965.5438842773438	659.9124755859375	-415.8329772949219	967.1392822265625	837.4767456054688	-532.9176025390625	543.2754516601562	734.586181640625	-502.0049438476562	669.9357299804688	821.7711181640625	-434.8434753417969	122.4373092651367	970.7684936523438	-491.1825561523438	319.8284606933594	866.7276000976562	-546.4028930664062	78.03762054443359	810.3041381835938	-476.7834777832031	82.73077392578125	814.7296142578125	-522.4376831054688	88.20980834960938	916.9469604492188	-343.7649536132812	133.3828582763672	965.60986328125	-218.1446838378906	504.5155639648438	761.5852661132812	-181.0149993896484	767.4403686523438	694.7177734375	-210.0846557617188	42.24740219116211	894.4765014648438	-216.6571197509766	381.4434204101562	793.2136840820312	-398.5895080566406	43.70304870605469	784.7257080078125	-377.3726501464844	46.98354721069336	851.2852172851562	-293.3124084472656	49.75701522827148	801.54638671875	-212.9499816894531	45.64495468139648	968.239501953125	
